<svg xmlns="http://www.w3.org/2000/svg" xmlns:xlink="http://www.w3.org/1999/xlink" width="500" zoomAndPan="magnify" viewBox="0 0 375 374.999991" height="500" preserveAspectRatio="xMidYMid meet" version="1.0"><defs><clipPath id="40c92e4a43"><path d="M 300 35 L 352 35 L 352 227 L 300 227 Z M 300 35 " clip-rule="nonzero"/></clipPath><clipPath id="ab98098f62"><path d="M 343.234375 27.78125 L 427.601562 148.160156 L 307.222656 232.53125 L 222.855469 112.152344 Z M 343.234375 27.78125 " clip-rule="nonzero"/></clipPath><clipPath id="deb54a38d7"><path d="M 343.234375 27.78125 L 427.601562 148.160156 L 307.222656 232.53125 L 222.855469 112.152344 Z M 343.234375 27.78125 " clip-rule="nonzero"/></clipPath><clipPath id="ec7d297a22"><path d="M 0 140 L 356 140 L 356 375 L 0 375 Z M 0 140 " clip-rule="nonzero"/></clipPath><clipPath id="6342243402"><path d="M -382.691406 275.597656 L 346.257812 108.980469 L 496.5 766.28125 L -232.453125 932.898438 Z M -382.691406 275.597656 " clip-rule="nonzero"/></clipPath><clipPath id="9259aa7e55"><path d="M -382.691406 275.597656 L 346.257812 108.980469 L 496.5 766.28125 L -232.453125 932.898438 Z M -382.691406 275.597656 " clip-rule="nonzero"/></clipPath></defs><rect x="-37.5" width="450" fill="#ffffff" y="-37.499999" height="449.999989" fill-opacity="1"/><rect x="-37.5" width="450" fill="#000000" y="-37.499999" height="449.999989" fill-opacity="1"/><g clip-path="url(#40c92e4a43)"><g clip-path="url(#ab98098f62)"><g clip-path="url(#deb54a38d7)"><path fill="#ff3131" d="M 343.332031 82.976562 C 343.1875 84.183594 342.089844 85.050781 340.871094 84.910156 C 339.664062 84.761719 338.800781 83.664062 338.941406 82.445312 C 338.945312 82.429688 338.9375 82.417969 338.945312 82.410156 L 344.957031 38.273438 C 345.015625 37.773438 344.660156 37.332031 344.160156 37.273438 C 343.660156 37.210938 343.207031 37.578125 343.15625 38.070312 C 343.15625 38.085938 343.152344 38.105469 343.140625 38.113281 L 335.9375 81.808594 C 335.746094 82.996094 334.632812 83.792969 333.445312 83.601562 C 332.265625 83.40625 331.46875 82.289062 331.648438 81.109375 C 331.652344 81.089844 331.65625 81.070312 331.664062 81.066406 L 339.8125 37.527344 C 339.964844 37.042969 339.691406 36.542969 339.21875 36.382812 C 338.734375 36.234375 338.222656 36.496094 338.074219 36.980469 C 338.0625 37.003906 338.054688 37.042969 338.050781 37.058594 L 328.644531 80.578125 C 328.386719 81.785156 327.214844 82.542969 326.015625 82.296875 C 324.828125 82.039062 324.058594 80.875 324.316406 79.671875 C 324.308594 79.660156 324.320312 79.652344 324.324219 79.632812 L 334.109375 36.765625 C 334.285156 36.117188 333.890625 35.464844 333.253906 35.296875 C 332.613281 35.128906 331.964844 35.507812 331.789062 36.132812 L 315.507812 87.863281 C 314.398438 91.414062 314.992188 95.273438 317.121094 98.335938 L 324.386719 108.699219 L 300.835938 215.460938 C 299.734375 220.457031 302.894531 225.417969 307.878906 226.527344 C 312.886719 227.636719 317.84375 224.476562 318.945312 219.480469 C 319.011719 219.210938 319.058594 218.941406 319.089844 218.671875 L 333.386719 110.273438 L 343.761719 103.003906 C 346.800781 100.859375 348.671875 97.433594 348.835938 93.707031 L 351.175781 39.542969 C 351.199219 38.878906 350.695312 38.320312 350.027344 38.285156 C 349.398438 38.265625 348.867188 38.71875 348.78125 39.34375 L 343.332031 82.976562 " fill-opacity="1" fill-rule="nonzero"/></g></g></g><g clip-path="url(#ec7d297a22)"><g clip-path="url(#6342243402)"><g clip-path="url(#9259aa7e55)"><path fill="#ff3131" d="M -184.785156 822.34375 C -200.398438 837.351562 -216.605469 851.609375 -233.609375 864.863281 C -234.214844 864.34375 -234.820312 863.820312 -235.425781 863.300781 C -233.617188 859.855469 -231.808594 856.414062 -229.566406 852.144531 C -233.007812 853.222656 -235.667969 854.054688 -238.328125 854.890625 C -238.71875 854.515625 -239.109375 854.140625 -239.503906 853.765625 C -236.4375 848.265625 -233.371094 842.769531 -230.308594 837.273438 C -230.457031 837.070312 -230.605469 836.867188 -230.753906 836.664062 C -231.703125 837.300781 -232.703125 837.875 -233.585938 838.59375 C -235.824219 840.40625 -237.859375 842.539062 -240.261719 844.078125 C -242.988281 845.828125 -246.039062 847.300781 -248.992188 844.203125 C -251.867188 841.195312 -250.15625 838.492188 -248.40625 835.878906 C -240.050781 823.402344 -231.660156 810.945312 -222.898438 797.914062 C -228.359375 795.617188 -227.292969 792.648438 -224.261719 788.867188 C -196.351562 754.070312 -172.542969 716.367188 -149.0625 678.441406 C -148.445312 677.449219 -148.003906 676.324219 -147.589844 675.222656 C -145.089844 668.574219 -143.324219 661.519531 -139.96875 655.359375 C -135.949219 647.988281 -133.5 640.84375 -135.394531 632.324219 C -136.183594 628.777344 -135.84375 624.980469 -137.046875 621.015625 C -140.4375 627.648438 -143.730469 634.335938 -147.292969 640.871094 C -148.121094 642.386719 -149.882812 643.371094 -151.214844 644.601562 C -151.71875 642.769531 -153.070312 640.648438 -152.582031 639.152344 C -149.046875 628.285156 -145.183594 617.523438 -141.3125 606.765625 C -140.382812 604.183594 -137.847656 601.894531 -141.4375 599.183594 C -142.007812 598.753906 -141.371094 595.917969 -140.636719 594.558594 C -132.027344 578.632812 -124.0625 562.269531 -114.4375 547 C -90.4375 508.929688 -62.539062 473.792969 -33.824219 439.332031 C -32.738281 438.027344 -31.480469 436.765625 -30.761719 435.257812 C -22.59375 418.113281 -10.847656 403.496094 0.46875 388.507812 C 8.675781 377.632812 15.652344 365.808594 23.445312 354.597656 C 39.113281 332.058594 58.8125 313.753906 81.273438 298.335938 C 84.09375 296.402344 86.992188 293.71875 88.390625 290.679688 C 92.742188 281.214844 96.574219 271.484375 100.226562 261.707031 C 102.101562 256.695312 103.167969 251.363281 104.601562 246.175781 C 104.691406 245.84375 104.976562 245.34375 104.859375 245.214844 C 100.570312 240.558594 106.632812 237.113281 106.1875 233.472656 C 105.414062 227.121094 109.003906 222.996094 111.257812 218.097656 C 111.46875 217.644531 111.792969 216.882812 111.601562 216.65625 C 107.539062 211.792969 111.730469 208.652344 114.152344 205.660156 C 117.449219 201.589844 113.230469 197.285156 115.179688 193.296875 C 115.957031 191.714844 115.539062 189.363281 116.554688 188.089844 C 133.507812 166.769531 154.972656 152.871094 181.914062 148.28125 C 194.113281 146.203125 206.203125 144.964844 218.660156 147.957031 C 232.023438 151.167969 245.632812 149.152344 259.0625 147.539062 C 277.007812 145.386719 294.878906 142.617188 312.847656 140.691406 C 323.589844 139.539062 334.164062 141.410156 344.039062 146.222656 C 346.765625 147.550781 349.410156 149.273438 351.707031 151.277344 C 357.363281 156.210938 357.578125 160.484375 351.445312 164.597656 C 337.957031 173.652344 323.980469 181.960938 310.347656 190.800781 C 300.003906 197.507812 289.804688 204.449219 279.726562 211.558594 C 277.640625 213.03125 275.964844 215.5 274.832031 217.875 C 270.332031 227.289062 265.15625 236.53125 262.058594 246.441406 C 258.671875 257.292969 257.597656 268.53125 264.488281 279.347656 C 269.980469 287.972656 273.875 297.625 279.09375 306.449219 C 289.949219 324.796875 295.773438 344.761719 298.679688 365.683594 C 299.066406 368.453125 297.710938 371.445312 297.226562 374.347656 C 296.558594 378.328125 295.800781 382.300781 295.390625 386.3125 C 295.203125 388.140625 296.027344 390.066406 295.933594 391.917969 C 295.667969 397.324219 295.332031 402.304688 292.785156 407.730469 C 287.992188 417.933594 283.386719 428.675781 283.566406 440.574219 C 283.574219 441.210938 283.246094 441.859375 283.042969 442.488281 C 281.660156 446.730469 279.992188 450.902344 279.003906 455.238281 C 278.523438 457.347656 278.925781 459.167969 275.886719 459.335938 C 274.945312 459.386719 273.773438 461.425781 273.3125 462.773438 C 271.148438 469.089844 268.609375 475.347656 267.273438 481.863281 C 261.921875 507.96875 250.746094 531.542969 237.710938 554.324219 C 234.152344 560.546875 229.09375 566.011719 226.351562 572.542969 C 224.699219 576.476562 222.898438 578.046875 219.265625 578.988281 C 218.070312 579.296875 217.167969 581.105469 216.332031 582.367188 C 208.976562 593.441406 202.75 605.558594 193.933594 615.261719 C 188.769531 620.945312 189.097656 626.867188 187.085938 632.824219 C 184.703125 639.886719 181.253906 646.597656 177.945312 653.292969 C 177.347656 654.5 175.148438 655.6875 173.792969 655.5625 C 168.058594 655.039062 164.179688 658.1875 160.460938 661.734375 C 158.089844 663.996094 157.835938 668.609375 153.089844 668.375 C 152.773438 668.359375 151.605469 671.453125 152.109375 672.410156 C 153.558594 675.152344 155.167969 678.289062 157.589844 679.945312 C 171.566406 689.484375 185.535156 699.089844 200.03125 707.769531 C 210.203125 713.859375 221.332031 718.261719 231.773438 723.921875 C 235.871094 726.140625 239.882812 729.191406 242.84375 732.785156 C 251.28125 743.03125 261.253906 748.234375 274.539062 745.410156 C 276.660156 744.960938 279.109375 744.523438 281.082031 745.15625 C 289.75 747.9375 298.476562 746.507812 307.222656 746.492188 C 318.417969 746.476562 327.25 759.910156 322.582031 770.707031 C 321.53125 769.214844 320.578125 768.207031 320.027344 767.011719 C 316.734375 759.839844 310.683594 758.078125 304.4375 762.558594 C 299.628906 766.011719 296.203125 765.660156 291.113281 762.042969 C 289.550781 760.929688 286.964844 760.492188 285.050781 760.847656 C 278.109375 762.128906 271.253906 763.878906 264.09375 765.515625 C 265.003906 768.28125 266.21875 771.761719 267.289062 775.285156 C 269.320312 781.992188 267.566406 788.203125 264.664062 794.160156 C 264.167969 795.179688 262.839844 795.773438 261.894531 796.566406 C 261.652344 795.230469 261.222656 793.890625 261.199219 792.550781 C 261.128906 788.332031 261.8125 784.003906 261.085938 779.914062 C 260.023438 773.949219 254.90625 771.332031 249.210938 773.28125 C 244.210938 774.992188 239.972656 774.824219 236.730469 769.804688 C 236.144531 768.898438 234.480469 768.351562 233.273438 768.265625 C 229.429688 767.992188 225.570312 768.011719 221.210938 768.449219 C 234.742188 777.050781 241.746094 788.585938 240.078125 804.3125 C 239.582031 804.609375 239.085938 804.90625 238.589844 805.199219 C 235.832031 801.652344 232.992188 798.167969 230.339844 794.546875 C 224.332031 786.34375 218.832031 784.105469 209.257812 786.613281 C 205.003906 787.726562 201.90625 787.378906 198.296875 783.992188 C 196.371094 782.1875 191.707031 783.390625 188.277344 783.234375 C 187.941406 784.007812 187.605469 784.777344 187.269531 785.546875 C 190.238281 788.882812 192.644531 793.210938 196.285156 795.371094 C 206.121094 801.195312 207.429688 823.507812 202.550781 832.421875 C 202.109375 833.234375 200.777344 833.539062 199.859375 834.078125 C 199.4375 833.242188 198.800781 832.441406 198.640625 831.558594 C 198.296875 829.703125 198.179688 827.808594 198.019531 825.925781 C 197.316406 817.722656 194.265625 811.289062 186.640625 807.023438 C 183.589844 805.316406 181.390625 801.527344 179.519531 798.265625 C 177.921875 795.488281 176.5 793.960938 173.171875 794.835938 C 166.0625 796.707031 160.171875 795.621094 155.269531 788.941406 C 152.398438 785.027344 148.175781 781.503906 142.105469 784.035156 C 139.722656 785.027344 136.761719 784.601562 134.066406 784.839844 C 129.652344 785.238281 127.957031 787.214844 129.859375 791.199219 C 131.652344 794.953125 134.734375 798.085938 137.257812 801.484375 C 137.84375 802.269531 138.460938 803.027344 139.074219 803.816406 C 134.753906 806.796875 125.738281 805.421875 122.378906 801.472656 C 115.40625 793.265625 114.183594 778.902344 120.242188 770.152344 C 122.382812 767.0625 125.796875 764.882812 129.886719 759.921875 C 128.027344 759.5 125.929688 759.511719 124.351562 758.589844 C 106.523438 748.160156 88.777344 737.589844 71.007812 727.058594 C 63.003906 722.3125 54.96875 717.621094 47.039062 712.746094 C 46.03125 712.128906 45.414062 710.621094 44.917969 709.402344 C 43.699219 706.378906 42.734375 703.25 41.523438 700.222656 C 38.550781 692.792969 28.808594 686.386719 21.136719 687.585938 C 18.273438 688.035156 15.777344 690.683594 13.070312 692.253906 C 9.648438 694.242188 6.378906 697.070312 2.6875 697.851562 C -1.371094 698.710938 -3.816406 700.589844 -6.226562 703.730469 C -11.101562 710.085938 -16.324219 716.175781 -21.699219 722.097656 C -22.324219 722.785156 -24.816406 721.726562 -26.441406 721.476562 C -26.511719 720.910156 -26.578125 720.34375 -26.648438 719.78125 C -33.0625 726.5625 -39.503906 733.320312 -45.886719 740.132812 C -55.898438 750.816406 -66.117188 761.3125 -75.769531 772.320312 C -81.246094 778.566406 -86.074219 785.460938 -90.671875 792.421875 C -105.160156 814.367188 -119.445312 836.453125 -133.714844 858.546875 C -141.011719 869.84375 -148.089844 881.292969 -155.316406 892.640625 C -156.109375 893.878906 -157.246094 894.894531 -159.238281 897.175781 C -159.691406 894.015625 -159.957031 892.144531 -160.253906 890.074219 C -163.796875 894.28125 -167.132812 898.742188 -170.996094 902.671875 C -173.820312 905.539062 -177.199219 907.925781 -180.613281 910.066406 C -181.78125 910.800781 -184.277344 910.734375 -185.308594 909.917969 C -186.164062 909.234375 -186.050781 906.878906 -185.851562 905.335938 C -185.59375 903.335938 -184.824219 901.410156 -184.25 899.367188 C -188.648438 897.296875 -191.015625 899.773438 -193.753906 902.3125 C -197.054688 905.371094 -200.75 908.054688 -204.550781 910.453125 C -205.886719 911.296875 -208.039062 910.8125 -209.820312 910.933594 C -209.703125 909.199219 -209.675781 907.453125 -209.429688 905.738281 C -209.289062 904.761719 -208.785156 903.839844 -208.449219 902.894531 C -208.785156 902.546875 -209.121094 902.199219 -209.460938 901.847656 C -213.191406 905.292969 -216.789062 908.902344 -220.703125 912.117188 C -223.234375 914.195312 -226.050781 916.488281 -229.078125 917.171875 C -231.203125 917.652344 -234.246094 916 -236.15625 914.410156 C -236.835938 913.847656 -235.835938 910.367188 -234.839844 908.6875 C -218.878906 881.789062 -202.789062 854.964844 -186.738281 828.121094 C -185.78125 826.519531 -184.886719 824.878906 -183.964844 823.257812 C -184.195312 822.902344 -184.476562 822.597656 -184.757812 822.289062 Z M 145.804688 748.128906 C 151.953125 740.628906 159.1875 736.636719 168.4375 739.15625 C 176.359375 741.316406 183.980469 744.703125 191.953125 746.578125 C 197.546875 747.894531 203.578125 748.332031 209.273438 747.761719 C 214.105469 747.277344 214.960938 744.164062 211.457031 740.628906 C 206.554688 735.683594 201.496094 730.515625 195.605469 727.027344 C 174.328125 714.414062 152.65625 702.484375 131.164062 690.25 C 123.59375 685.9375 120.851562 686.203125 114.339844 692.132812 C 111.953125 694.300781 109.636719 696.613281 106.988281 698.398438 C 104.402344 700.136719 104.273438 701.914062 104.875 704.851562 C 105.613281 708.441406 105.125 712.269531 105.390625 715.976562 C 105.484375 717.28125 105.863281 719.070312 106.761719 719.730469 C 119.53125 729.160156 132.421875 738.4375 145.808594 748.121094 Z M 163.242188 750.027344 C 161.441406 752.273438 160.398438 753.574219 159.355469 754.875 C 161.933594 756.046875 164.449219 757.480469 167.144531 758.164062 C 167.699219 758.300781 168.929688 755.625 169.847656 754.242188 C 167.832031 752.960938 165.816406 751.675781 163.246094 750.03125 Z M 163.242188 750.027344 " fill-opacity="1" fill-rule="evenodd"/></g></g></g></svg>